<svg width="40" height="41" viewBox="0 0 40 41" fill="none" xmlns="http://www.w3.org/2000/svg">
<path d="M6 20.632C6 15.3523 6 12.7124 7.6402 11.0722C9.28041 9.43201 11.9203 9.43201 17.2 9.43201H22.8C28.0797 9.43201 30.7197 9.43201 32.3598 11.0722C34 12.7124 34 15.3523 34 20.632C34 25.9117 34 28.5517 32.3598 30.1918C30.7197 31.832 28.0797 31.832 22.8 31.832H17.2C11.9203 31.832 9.28041 31.832 7.6402 30.1918C6 28.5517 6 25.9117 6 20.632Z" stroke="#999999"/>
<path d="M15.0999 20.6317C15.0999 21.7916 14.1597 22.7317 12.9999 22.7317C11.8401 22.7317 10.8999 21.7916 10.8999 20.6317C10.8999 19.4719 11.8401 18.5317 12.9999 18.5317C14.1597 18.5317 15.0999 19.4719 15.0999 20.6317Z" fill="#999999"/>
<path d="M22.0999 20.6319C22.0999 21.7917 21.1597 22.7319 19.9999 22.7319C18.8401 22.7319 17.8999 21.7917 17.8999 20.6319C17.8999 19.472 18.8401 18.5319 19.9999 18.5319C21.1597 18.5319 22.0999 19.472 22.0999 20.6319Z" fill="#999999"/>
<path d="M29.0999 20.6319C29.0999 21.7917 28.1597 22.7319 26.9999 22.7319C25.8401 22.7319 24.8999 21.7917 24.8999 20.6319C24.8999 19.472 25.8401 18.5319 26.9999 18.5319C28.1597 18.5319 29.0999 19.472 29.0999 20.6319Z" fill="#999999"/>
</svg>
